<svg xmlns="http://www.w3.org/2000/svg" width="64" height="64" viewBox="0 0 64 64"><rect width="64" height="64" rx="12" fill="#F5F7FB"/><path d="M18 10h21l11 11v31a6 6 0 0 1-6 6H18a6 6 0 0 1-6-6V16a6 6 0 0 1 6-6z" fill="#FFFFFF" stroke="#C7D0E0" stroke-width="2"/><path d="M39 10v9a2 2 0 0 0 2 2h9" fill="#E8EEF8"/><rect x="22" y="27" width="20" height="4" rx="2" fill="#5B6C8F"/><rect x="22" y="35" width="16" height="4" rx="2" fill="#8B9BBB"/><rect x="22" y="43" width="18" height="4" rx="2" fill="#8B9BBB"/></svg>